<svg xmlns="http://www.w3.org/2000/svg" width="70" height="49" viewBox="0 0 70 49">
  <g id="사각형_74" data-name="사각형 74" fill="none" stroke="#fff" stroke-width="3">
    <rect width="70" height="49" rx="16" stroke="none"/>
    <rect x="1.5" y="1.5" width="67" height="46" rx="14.5" fill="none"/>
  </g>
  <g id="다각형_1" data-name="다각형 1" transform="translate(48 12) rotate(90)" fill="none">
    <path d="M10.485,3.87a3,3,0,0,1,5.031,0l7.472,11.5A3,3,0,0,1,20.472,20H5.528a3,3,0,0,1-2.515-4.635Z" stroke="none"/>
    <path d="M 12.99999904632568 5.504705429077148 C 12.99999713897705 5.504705429077148 12.9999942779541 5.504705429077148 12.99999904632568 5.504695892333984 L 5.528068542480469 16.99999237060547 C 5.528070449829102 16.99999237060547 5.528070449829102 16.9999942779541 5.528059005737305 16.99999618530273 L 20.47192764282227 16.99999618530273 C 20.47192764282227 16.99999237060547 20.47193145751953 16.9999885559082 20.47193908691406 16.99999618530273 L 13.00000858306885 5.504716873168945 C 13.0000057220459 5.50471305847168 13.0000057220459 5.504707336425781 12.99999904632568 5.504705429077148 M 12.99999904632568 2.504705429077148 C 13.96190643310547 2.504705429077148 14.92381381988525 2.959716796875 15.51532936096191 3.869735717773438 L 22.98726844787598 15.36503601074219 C 24.28451919555664 17.36079597473145 22.85225868225098 19.99999618530273 20.47193908691406 19.99999618530273 L 5.528059005737305 19.99999618530273 C 3.147739410400391 19.99999618530273 1.715478897094727 17.36079597473145 3.012729644775391 15.36503601074219 L 10.48466873168945 3.869735717773438 C 11.07618427276611 2.959716796875 12.0380916595459 2.504705429077148 12.99999904632568 2.504705429077148 Z" stroke="none" fill="#fff"/>
  </g>
</svg>
